<svg width="110" height="113" xmlns="http://www.w3.org/2000/svg" xmlns:xlink="http://www.w3.org/1999/xlink" overflow="hidden"><g transform="translate(-135 -509)"><path d="M136.64 584.483C137.86 577.565 146.374 573.285 155.656 574.921L187.477 566.452C186.741 570.627 170.991 586.235 170.255 590.41 169.035 597.327 160.521 601.608 151.239 599.971 141.957 598.334 135.42 591.4 136.64 584.483Z" stroke="#161E4A" stroke-width="1.33333" stroke-miterlimit="8" fill="#00B0F0" fill-rule="evenodd"/><path d="M177.57 618.479C172.269 613.871 172.985 604.368 179.169 597.255L188.298 565.617C191.497 568.398 196.764 589.937 199.964 592.718 205.265 597.326 204.549 606.829 198.366 613.942 192.182 621.056 182.872 623.087 177.57 618.479Z" stroke="#161E4A" stroke-width="1.33333" stroke-miterlimit="8" fill="#FF0000" fill-rule="evenodd"/><path d="M224.613 608.216C217.696 609.436 210.761 602.9 209.125 593.617L190.282 566.612C194.457 565.876 214.511 575.338 218.686 574.601 225.603 573.382 232.538 579.918 234.174 589.2 235.811 598.483 231.531 606.996 224.613 608.216Z" stroke="#161E4A" stroke-width="1.33333" stroke-miterlimit="8" fill="#FFFF00" fill-rule="evenodd"/><path d="M242.213 562.623C239.024 568.881 229.63 570.486 221.232 566.207L188.325 565.003C190.25 561.225 209.875 550.904 211.8 547.127 214.988 540.868 224.382 539.264 232.78 543.543 241.178 547.822 245.401 556.364 242.213 562.623Z" stroke="#161E4A" stroke-width="1.33333" stroke-miterlimit="8" fill="#00B050" fill-rule="evenodd"/><path d="M207.915 514.531C212.336 519.99 209.981 529.223 202.656 535.155L188.172 564.727C185.504 561.433 184.057 539.306 181.389 536.012 176.968 530.553 179.323 521.319 186.648 515.388 193.973 509.456 203.495 509.072 207.915 514.531Z" stroke="#161E4A" stroke-width="1.33333" stroke-miterlimit="8" fill="#4253B3" fill-rule="evenodd"/><path d="M150.178 527.234C156.963 525.416 164.441 531.323 166.88 540.427L188.004 565.687C183.91 566.785 163.108 559.107 159.013 560.204 152.228 562.022 144.75 556.115 142.311 547.011 139.871 537.906 143.394 529.052 150.178 527.234Z" stroke="#161E4A" stroke-width="1.33333" stroke-miterlimit="8" fill="#AD547C" fill-rule="evenodd"/></g></svg>