<svg viewBox="0 0 96 96" xmlns="http://www.w3.org/2000/svg" xmlns:xlink="http://www.w3.org/1999/xlink" id="Icons_Wallet" overflow="hidden"><path d="M74 57C71.8 57 70 55.2 70 53 70 50.8 71.8 49 74 49 76.2 49 78 50.8 78 53 78 55.2 76.2 57 74 57ZM84 43 82 43 82 32C82 29.8 80.2 28 78 28L22 28C20.9 28 20 27.1 20 26 20 24.9 20.9 24 22 24L78 24 78 22C78 19.8 76.2 18 74 18L22 18C17.6 18 14 21.6 14 26L14 70C14 74.4 17.6 78 22 78L78 78C80.2 78 82 76.2 82 74L82 63 84 63C85.1 63 86 62.1 86 61L86 45C86 43.9 85.1 43 84 43Z"/></svg>