<svg viewBox="0 0 96 96" xmlns="http://www.w3.org/2000/svg" xmlns:xlink="http://www.w3.org/1999/xlink" id="Icons_Bus" overflow="hidden"><path d="M8 30C8 28.9 8.9 28 10 28L24 28 24 44 8 44 8 30ZM28 28 44 28 44 44 28 44 28 28ZM48 28 64 28 64 44 48 44 48 28ZM68 28 81.3 28C83.2 28 84.9 29.4 85.2 31.3L87.5 45.5C87.7 47 87.9 48.5 87.9 50L74 50 68 44 68 28ZM4 28 4 64C4 66.2 5.8 68 8 68L8.2 68C8.1 67.4 8 66.7 8 66 8 60.5 12.5 56 18 56 23.5 56 28 60.5 28 66 28 66.7 27.9 67.4 27.8 68L64.2 68C64.1 67.4 64 66.7 64 66 64 60.5 68.5 56 74 56 79.5 56 84 60.5 84 66 84 66.7 83.9 67.4 83.8 68L88 68C90.2 68 92 66.2 92 64L92 51.2C92 49.1 91.8 46.9 91.5 44.8L89.2 30.5C88.5 26.7 85.2 23.9 81.3 23.9L8 23.9C5.8 24 4 25.8 4 28Z"/><circle cx="74" cy="66" r="7"/><circle cx="18" cy="66" r="7"/></svg>