<svg viewBox="0 0 96 96" xmlns="http://www.w3.org/2000/svg" xmlns:xlink="http://www.w3.org/1999/xlink" id="Icons_Bonfire" overflow="hidden"><path d="M64.4 33.9C65.5 38.5 60.8 43 56.2 41.1 52.3 39.7 50.8 35.2 53.5 31.3 59.6 23.2 55.1 10.5 45 6.1 49.6 14.8 42.6 22.7 38.5 26.1 34.5 29.4 31.8 32.9 31 34.9 26.9 44.8 33 54.3 37.2 56.6 35.3 52.3 33.6 44.2 41 36.5 41 36.5 38.9 44.7 43.5 50.3 48.1 56 48.1 60.2 48.1 60.2 55.3 60.2 62.2 55.9 65.1 48.8 67.1 44.5 67.3 37.8 64.4 33.9"/><path d="M78.4 79.4 22.1 56.4C19.8 55.6 17.5 56.5 16.6 58.6L15.4 61.4C14.5 63.4 15.5 65.8 17.6 66.6L33.4 73 17.8 79.4C15.7 80.2 14.7 82.6 15.6 84.6L16.8 87.4C17.7 89.4 20 90.4 22.1 89.6L48 79 73.9 89.6C76 90.4 78.3 89.5 79.2 87.4L80.4 84.6C81.2 82.6 80.3 80.2 78.4 79.4"/><path d="M78.4 66.6C80.5 65.8 81.5 63.4 80.6 61.4L79.4 58.6C78.5 56.6 76.2 55.6 74.1 56.4L53.4 64.9 68 70.9 78.4 66.6Z"/></svg>